<svg width="1600" height="1000" viewBox="0 0 1600 1000" fill="none" xmlns="http://www.w3.org/2000/svg">
  <rect width="1600" height="1000" fill="#0A0A0A"/>
  <path d="M0 760C226 650 432 626 616 688C842 764 1035 793 1600 620V1000H0V760Z" fill="#FF6A00" fill-opacity="0.12"/>
  <rect x="120" y="120" width="1360" height="760" rx="42" fill="#121212" stroke="#2A2A2A" stroke-width="2"/>
  <rect x="190" y="190" width="1220" height="420" rx="30" fill="url(#paint0_linear_3_2)"/>
  <rect x="190" y="650" width="380" height="150" rx="24" fill="#191919"/>
  <rect x="610" y="650" width="380" height="150" rx="24" fill="#191919"/>
  <rect x="1030" y="650" width="380" height="150" rx="24" fill="#191919"/>
  <text x="190" y="150" fill="#FF8F1F" font-size="34" font-family="Arial, sans-serif" letter-spacing="4">HAMMER GYM</text>
  <text x="220" y="735" fill="#F5F1EB" font-size="28" font-family="Arial, sans-serif">Зал</text>
  <text x="640" y="735" fill="#F5F1EB" font-size="28" font-family="Arial, sans-serif">Тренеры</text>
  <text x="1060" y="735" fill="#F5F1EB" font-size="28" font-family="Arial, sans-serif">Атмосфера</text>
  <text x="250" y="390" fill="#F5F1EB" font-size="76" font-family="Arial, sans-serif" font-weight="700">Галерея готова под реальные фото</text>
  <text x="250" y="460" fill="#C0B7AA" font-size="30" font-family="Arial, sans-serif">Просто замени SVG на JPG или WEBP с теми же именами или обнови пути в коде</text>
  <defs>
    <linearGradient id="paint0_linear_3_2" x1="190" y1="190" x2="1410" y2="610" gradientUnits="userSpaceOnUse">
      <stop stop-color="#1F1F1F"/>
      <stop offset="1" stop-color="#0F0F0F"/>
    </linearGradient>
  </defs>
</svg>
